<?xml version="1.0" standalone="no"?><!DOCTYPE svg PUBLIC "-//W3C//DTD SVG 1.1//EN" "http://www.w3.org/Graphics/SVG/1.1/DTD/svg11.dtd"><svg t="1724744842523" class="icon" viewBox="0 0 1024 1024" version="1.1" xmlns="http://www.w3.org/2000/svg" p-id="1797" xmlns:xlink="http://www.w3.org/1999/xlink" width="200" height="200"><path d="M512 512m-405.333333 0a405.333333 405.333333 0 1 0 810.666666 0 405.333333 405.333333 0 1 0-810.666666 0Z" fill="#FBC02D" p-id="1798"></path><path d="M512 512m-341.333333 0a341.333333 341.333333 0 1 0 682.666666 0 341.333333 341.333333 0 1 0-682.666666 0Z" fill="#FDD835" p-id="1799"></path><path d="M512 149.333333a362.666667 362.666667 0 1 0 362.666667 362.666667A362.666667 362.666667 0 0 0 512 149.333333z m320 362.666667a300.16 300.16 0 0 1-3.84 48.213333 21.333333 21.333333 0 0 1-26.666667 17.493334L556.373333 512l245.12-65.706667a21.333333 21.333333 0 0 1 26.666667 17.493334A300.16 300.16 0 0 1 832 512z m-35.84-85.333333l-245.333333 64 179.84-179.84a21.333333 21.333333 0 0 1 32 2.133333A318.72 318.72 0 0 1 810.666667 396.8a21.333333 21.333333 0 0 1-14.506667 29.866667z m-260.48 49.706666l66.346667-247.253333a21.333333 21.333333 0 0 1 29.013333-14.293333 322.133333 322.133333 0 0 1 82.986667 49.28 21.333333 21.333333 0 0 1 1.92 32z m45.653333-253.226666l-66.346666 247.68L448 222.08a21.333333 21.333333 0 0 1 17.706667-26.666667A324.693333 324.693333 0 0 1 512 192a321.28 321.28 0 0 1 52.053333 4.48 21.333333 21.333333 0 0 1 17.28 26.666667z m132.693334 536.746666a322.133333 322.133333 0 0 1-82.986667 49.28 21.333333 21.333333 0 0 1-29.013333-14.293333l-66.346667-247.253333 180.266667 180.266666a21.333333 21.333333 0 0 1-1.92 32zM494.506667 476.373333l-183.04-183.04a21.333333 21.333333 0 0 1 2.133333-32 321.706667 321.706667 0 0 1 85.333333-48.64 21.333333 21.333333 0 0 1 28.8 14.293334z m-198.4-168.32L479.36 490.666667 228.266667 424.106667a21.333333 21.333333 0 0 1-14.933334-29.013334 321.066667 321.066667 0 0 1 49.92-85.333333 21.333333 21.333333 0 0 1 32.853334-1.706667z m198.4 239.573334l-66.773334 249.386666a21.333333 21.333333 0 0 1-28.8 13.653334 321.706667 321.706667 0 0 1-85.333333-48.64 21.333333 21.333333 0 0 1-2.133333-32zM192 512a320 320 0 0 1 4.053333-49.92 21.333333 21.333333 0 0 1 26.666667-17.28L473.813333 512l-251.093333 67.2a21.333333 21.333333 0 0 1-26.666667-17.28A320 320 0 0 1 192 512z m36.266667 87.893333L479.36 533.333333l-183.253333 183.253334a21.333333 21.333333 0 0 1-32-1.92 321.066667 321.066667 0 0 1-49.92-85.333334 21.333333 21.333333 0 0 1 14.08-29.44zM448 801.92l66.56-248.746667 66.346667 247.68a21.333333 21.333333 0 0 1-17.28 26.666667A321.28 321.28 0 0 1 512 832a324.693333 324.693333 0 0 1-45.866667-3.413333 21.333333 21.333333 0 0 1-18.133333-26.666667z m282.666667-89.386667L550.826667 533.333333l245.333333 65.706667A21.333333 21.333333 0 0 1 810.666667 627.2a318.72 318.72 0 0 1-47.786667 83.2 21.333333 21.333333 0 0 1-32.213333 2.133333z" fill="#FFF8E1" p-id="1800"></path></svg>