<?xml version="1.0" standalone="no"?><!DOCTYPE svg PUBLIC "-//W3C//DTD SVG 1.1//EN" "http://www.w3.org/Graphics/SVG/1.1/DTD/svg11.dtd"><svg t="1719989649129" class="icon" viewBox="0 0 1024 1024" version="1.1" xmlns="http://www.w3.org/2000/svg" p-id="9342" xmlns:xlink="http://www.w3.org/1999/xlink" width="200" height="200"><path d="M512 53.312a458.688 458.688 0 1 0 0 917.376A458.688 458.688 0 0 0 512 53.312z m-96.704 259.84c6.848 31.68 36.48 101.376 96.704 140.544 60.288-39.168 89.856-108.928 96.768-140.48a32 32 0 1 1 62.464 13.632c-8.96 41.28-45.76 131.072-127.232 182.336V544h74.688a32 32 0 1 1 0 64H544V704a32 32 0 0 1-64 0V608H405.312a32 32 0 1 1 0-64H480v-34.816c-81.472-51.264-118.272-141.056-127.232-182.4a32 32 0 1 1 62.528-13.568z" fill="#33C48F" p-id="9343"></path></svg>