<?xml version="1.0" standalone="no"?><!DOCTYPE svg PUBLIC "-//W3C//DTD SVG 1.1//EN" "http://www.w3.org/Graphics/SVG/1.1/DTD/svg11.dtd"><svg t="1719988864694" class="icon" viewBox="0 0 1024 1024" version="1.1" xmlns="http://www.w3.org/2000/svg" p-id="7398" xmlns:xlink="http://www.w3.org/1999/xlink" width="200" height="200"><path d="M504.888889 967.125333c-168.618667 0-305.777778-56.704-305.777778-126.407111 0-43.548444 53.191111-83.484444 142.222222-106.837333l31.687111 41.912889c-76.984889 13.909333-122.951111 38.158222-122.951111 64.924444 0 41.827556 114.304 75.847111 254.805334 75.847111 140.515556 0 254.805333-34.019556 254.805333-75.847111 0-24.746667-40.675556-47.985778-108.842667-62.151111l21.944889-43.52c86.328889 23.509333 137.856 63.018667 137.856 105.671111 0.028444 69.688889-137.144889 126.407111-305.749333 126.407111z m0-126.407111c-11.946667 0-89.173333-79.459556-161.777778-177.351111C289.351111 590.748444 199.111111 454.840889 199.111111 360.291556a300.316444 300.316444 0 0 1 89.6-214.542223c119.808-118.471111 312.647111-118.471111 432.455111 0a300.316444 300.316444 0 0 1 89.6 214.542223c0 95.018667-89.6 230.684444-142.990222 303.075555-74.709333 101.191111-150.314667 177.351111-162.887111 177.351111z m0-733.255111c-140.117333-0.369778-254.094222 112.725333-254.805333 252.842667 0 73.102222 67.911111 185.699556 124.899555 267.278222 63.914667 91.477333 126.577778 162.56 129.92 162.56 6.485333 0 71.68-75.235556 132.010667-162.56 56.035556-81.066667 122.808889-193.28 122.808889-267.278222-0.711111-140.117333-114.702222-253.226667-254.833778-252.842667z m0 353.991111a126.435556 126.435556 0 1 1 127.388444-126.407111 127.061333 127.061333 0 0 1-127.388444 126.407111z m0-202.282666a75.861333 75.861333 0 1 0 76.430222 75.875555 76.259556 76.259556 0 0 0-76.430222-75.875555z" fill="#323233" p-id="7399"></path></svg>